<svg xmlns="http://www.w3.org/2000/svg" viewBox="0 0 100 100">
  <defs>
    <linearGradient id="pyGrad" x1="0" y1="0" x2="1" y2="1">
      <stop offset="0%" stop-color="#306998"/>
      <stop offset="100%" stop-color="#FFD43B"/>
    </linearGradient>
  </defs>
  <path d="M50 10C30 10 32 19 32 19v9h18v3H28s-14-1.5-14 18 12 19 14 19h5v-9s-0.5-14 14-14h18s13 0.5 13-13V19S80 10 50 10zM40 20a4 4 0 110 8 4 4 0 010-8z" fill="#306998"/>
  <path d="M50 90c20 0 18-9 18-9v-9H50v-3h22s14 1.5 14-18-12-19-14-19h-5v9s0.5 14-14 14H35s-13-0.5-13 13v13S20 90 50 90zm10-10a4 4 0 110-8 4 4 0 010 8z" fill="#FFD43B"/>
</svg>
